<svg width="596" height="631" viewBox="0 0 596 631" fill="none" xmlns="http://www.w3.org/2000/svg">
<path d="M413.525 94.0368L503.223 339.359C511.295 361.335 515.332 384.208 515.332 407.529C515.332 462.693 492.907 514.718 451.647 553.736C410.834 592.755 356.119 614.282 298.264 614.282C178.518 614.282 81.6445 521.445 81.6445 407.529C81.6445 384.208 85.681 361.335 93.7537 339.359L183.451 94.0368C189.282 77.4428 199.597 62.6427 212.603 50.085C235.476 28.1092 265.973 16 298.712 16C350.289 16.4485 396.483 47.8426 413.525 94.0368Z" fill="#FCEFD3" stroke="#00432B" stroke-width="31.6632"/>
<path d="M415.116 474.802H595.408H532.172C467.589 474.802 415.116 422.778 414.668 358.644M415.116 474.802H180.558M415.116 474.802V359.093M415.116 474.802V577.954M180.558 474.802H0.265625H63.0539C127.636 474.802 179.661 423.226 180.558 359.541M180.558 474.802V359.99M180.558 474.802V577.954M415.116 358.196V358.644M415.116 359.093C414.668 423.226 362.195 474.802 297.613 474.802C233.479 474.802 181.006 423.675 180.109 359.99M180.558 359.99V359.541M180.558 359.99V358.196C180.558 358.644 180.558 359.093 180.558 359.541M180.109 359.541C180.109 359.093 180.109 358.644 180.109 358.196M415.116 359.093V358.644V359.093Z" stroke="#00432B" stroke-width="31.6632"/>
<path d="M298.637 400.354C331.084 400.354 357.388 368.829 357.388 329.941C357.388 291.053 331.084 259.529 298.637 259.529C266.189 259.529 239.885 291.053 239.885 329.941C239.885 368.829 266.189 400.354 298.637 400.354Z" fill="#A8DA5B" stroke="#00432B" stroke-width="43.8101"/>
</svg>
