<svg width="195" height="218" viewBox="0 0 195 218" fill="none" xmlns="http://www.w3.org/2000/svg">
<path d="M194.481 163.833H179.891" stroke="#25731E" stroke-width="12.8437" stroke-miterlimit="10"/>
<path d="M14.6685 163.833H0.078125" stroke="#25731E" stroke-width="12.8437" stroke-miterlimit="10"/>
<path d="M136.365 33.4467L167.19 117.393C169.909 124.851 171.3 132.727 171.3 140.666C171.277 150.039 169.337 159.309 165.6 167.905C161.863 176.502 156.407 184.243 149.568 190.653C135.386 204.007 116.594 211.369 97.1147 211.203C56.015 211.203 22.9297 179.505 22.9297 140.511C22.9249 132.573 24.316 124.695 27.0397 117.239L57.8644 33.2926C59.897 27.7746 63.1251 22.7745 67.3174 18.6508C75.26 11.1207 85.8105 6.95939 96.755 7.04015C105.267 6.85462 113.631 9.28781 120.715 14.0106C127.799 18.7334 133.262 25.518 136.365 33.4467Z" fill="#FFEED0" stroke="#25731E" stroke-width="12.8437" stroke-miterlimit="10"/>
<path d="M96.7392 138.302C107.805 138.302 116.775 127.492 116.775 114.156C116.775 100.821 107.805 90.0103 96.7392 90.0103C85.6736 90.0103 76.7031 100.821 76.7031 114.156C76.7031 127.492 85.6736 138.302 96.7392 138.302Z" fill="#91D636" stroke="#25731E" stroke-width="12.8437" stroke-miterlimit="10"/>
<path d="M13.5312 163.833C18.8922 163.991 24.2308 163.08 29.2363 161.154C34.2418 159.228 38.8141 156.325 42.6869 152.615C46.5597 148.905 49.6556 144.461 51.7944 139.543C53.9332 134.624 55.072 129.329 55.1447 123.967V123.042C55.1447 134.079 59.529 144.663 67.333 152.467C75.137 160.271 85.7216 163.833 96.7581 163.833C107.795 163.833 118.379 160.271 126.183 152.467C133.987 144.663 138.372 134.079 138.372 123.042C138.412 128.452 139.52 133.802 141.632 138.783C143.745 143.764 146.82 148.279 150.681 152.069C154.543 155.859 159.115 158.849 164.135 160.868C169.154 162.887 174.523 163.894 179.934 163.833H13.5312Z" fill="#25731E" stroke="#25731E" stroke-width="12.8437" stroke-miterlimit="10"/>
<path d="M138.352 163.833V199.333" stroke="#25731E" stroke-width="12.8437" stroke-miterlimit="10"/>
<path d="M55.1094 163.833V199.333" stroke="#25731E" stroke-width="12.8437" stroke-miterlimit="10"/>
</svg>
